M48
;GenerationSoftware,Autodesk,EAGLE,9.6.2*%
;CreationDate,2021-08-23T17:38:34Z*%
FMAT,2
ICI,OFF
METRIC,TZ,000.000
T1C0.350
%
G90
M71
T1
X70399Y86064
X71472Y86058
X72567Y86055
X73701Y86068
X74693Y86065
X75702Y85934
X76608Y85351
X77176Y84242
X77203Y83076
X77201Y81959
X77060Y80803
X76290Y79790
X75170Y80646
X69349Y86051
X68263Y86062
X67163Y86065
X66011Y86070
X64853Y86071
X63754Y86072
X62635Y86063
X61522Y86054
X60392Y86053
X59318Y86047
X58140Y86022
X56991Y86072
X52060Y86540
X51190Y87670
X50900Y88960
X50890Y90180
X50910Y91550
X50880Y92700
X50850Y93770
X52640Y93730
X52690Y92660
X52810Y91580
X52760Y90270
X52840Y89110
X53470Y88080
X54550Y87640
X55870Y87440
X57230Y87350
X55760Y86043
X54563Y86038
X53324Y86043
X75730Y81530
X75815Y82520
X75828Y83533
X75360Y84468
X74365Y84748
X73339Y84758
X72338Y84735
X71331Y84733
X70304Y84750
X69268Y84738
X68275Y84730
X67272Y84728
X66097Y84733
X64924Y84738
X63711Y84738
X62620Y84766
X61543Y84765
X60436Y84756
X59321Y84763
X58173Y84743
X74064Y81336
X74464Y82173
X74319Y83149
X73356Y83403
X72345Y83389
X71311Y83397
X70319Y83409
X70439Y76663
X70445Y72899
X70439Y70376
X73758Y72688
X75027Y72646
X76309Y72617
X78456Y82558
X79718Y82537
X82901Y85903
X80959Y82493
X83539Y84654
X82209Y82455
X84184Y83409
X88091Y82149
X89062Y77938
X89129Y76681
X89137Y75434
X89162Y74188
X89151Y72937
X89148Y71685
X89161Y70421
X84816Y73776
X89161Y69135
X83570Y73759
X82286Y73686
X57071Y84735
X55954Y84729
X54838Y84735
X53703Y84704
X52611Y84698
X51476Y84692
X50378Y84717
X49285Y84698
X48090Y84711
X47004Y84711
X45905Y84711
X43686Y84728
X42628Y84730
X41580Y84722
X40524Y84737
X39468Y84722
X38390Y84744
X37303Y84702
X36211Y84685
X35066Y84685
X33931Y84746
X32698Y84798
X31632Y85017
X30794Y85724
X30523Y86852
X30444Y87912
X30459Y90087
X30459Y88985
X71429Y82145
X72616Y81903
X63282Y75400
X62286Y75399
X61283Y75397
X60109Y75400
X59034Y75393
X57786Y75392
X56664Y75394
X55579Y75392
X54465Y75396
X53302Y75398
X52178Y75396
X51074Y75396
X49966Y75398
X48854Y75397
X47745Y75399
X46653Y75399
X45579Y75393
X44387Y75391
X43311Y75394
X42104Y75392
X40981Y75397
X39877Y75399
X37697Y75397
X36639Y75399
X35591Y75392
X34546Y75378
X33479Y75392
X66319Y75396
X65317Y75394
X64323Y75399
X69401Y75395
X68372Y75393
X67316Y75395
X63290Y76662
X62298Y76654
X61294Y76652
X60120Y76657
X59045Y76648
X57800Y76643
X56665Y76662
X55588Y76666
X54476Y76656
X53325Y76661
X52202Y76642
X51093Y76659
X49977Y76653
X48860Y76659
X47754Y76657
X46665Y76654
X45590Y76648
X44400Y76641
X43322Y76649
X42105Y76664
X41031Y76656
X39964Y76654
X37708Y76652
X36650Y76654
X35602Y76647
X34567Y76645
X33490Y76647
X38861Y76657
X38815Y75396
X69433Y76650
X68381Y76645
X67389Y76656
X66375Y76657
X65329Y76644
X64336Y76656
X69273Y83408
X68280Y83407
X67277Y83404
X66102Y83410
X65028Y83401
X63782Y83396
X62640Y83387
X61573Y83388
X60459Y83409
X59290Y83385
X58185Y83395
X57076Y83398
X55960Y83406
X54846Y83406
X53736Y83410
X52647Y83407
X51573Y83401
X50383Y83394
X49305Y83401
X48095Y83387
X47009Y83387
X45910Y83387
X43691Y83404
X42633Y83406
X41585Y83399
X40539Y83386
X39473Y83399
X38395Y83400
X37285Y83408
X36237Y83409
X35078Y83400
X33964Y83391
X66220Y82144
X65227Y82139
X64224Y82136
X63050Y82141
X61975Y82132
X60765Y82145
X59554Y82140
X58494Y82145
X57406Y82140
X56245Y82138
X55140Y82140
X54023Y82143
X52907Y82137
X51790Y82143
X50684Y82141
X49595Y82139
X48520Y82132
X47386Y82140
X46252Y82133
X45063Y82145
X43945Y82139
X42827Y82143
X40638Y82136
X39580Y82138
X38532Y82131
X37476Y82142
X36420Y82131
X35342Y82132
X34232Y82140
X33184Y82140
X32026Y82132
X30911Y82131
X41791Y82141
X44844Y83410
X69298Y82144
X68302Y82143
X67266Y82140
X70355Y82138
X44839Y84733
X63288Y74145
X62292Y74147
X61288Y74145
X60116Y74147
X59040Y74146
X57785Y74145
X56669Y74143
X55584Y74147
X54468Y74146
X53307Y74146
X52184Y74144
X51079Y74144
X49971Y74146
X48859Y74145
X47750Y74146
X46659Y74147
X45602Y74142
X44405Y74147
X43316Y74146
X42113Y74144
X40986Y74145
X39883Y74147
X37702Y74145
X36645Y74147
X66324Y74145
X65325Y74142
X64347Y74142
X69406Y74144
X68378Y74143
X67321Y74143
X38820Y74144
X63316Y70370
X62327Y70371
X61311Y70369
X60143Y70368
X59076Y70367
X57814Y70367
X56702Y70369
X55613Y70367
X54499Y70367
X53336Y70372
X52217Y70370
X51108Y70370
X50000Y70372
X48888Y70367
X47776Y70369
X46680Y70372
X45633Y70367
X66343Y70370
X65357Y70371
X64359Y70367
X69438Y70369
X68410Y70368
X67368Y70371
X49995Y69078
X48883Y69072
X63288Y71648
X62299Y71650
X61283Y71647
X60115Y71646
X59048Y71645
X57786Y71645
X56674Y71647
X55585Y71645
X54471Y71645
X53308Y71651
X52189Y71649
X51080Y71649
X49972Y71651
X48860Y71645
X47748Y71647
X46652Y71651
X45605Y71646
X44409Y71647
X43328Y71649
X66315Y71648
X65329Y71649
X64331Y71645
X69410Y71647
X68382Y71646
X67340Y71650
X32666Y83389
X31545Y83426
X30373Y83848
X29382Y84628
X28843Y85655
X28727Y86798
X28696Y87953
X28659Y89137
X28596Y90333
X28617Y91686
X28628Y92819
X28344Y93857
X30568Y91256
X30536Y92368
X30620Y93574
X31938Y93486
X33247Y93675
X33763Y94582
X33801Y95677
X33763Y96835
X33801Y97842
X27096Y93700
X25985Y93847
X25482Y94927
X25513Y96007
X25482Y97151
X25482Y98199
X40483Y85859
X39954Y86828
X39728Y87961
X39690Y89157
X39652Y90289
X39614Y91473
X39627Y92681
X39564Y93713
X38520Y93751
X37311Y93789
X36582Y94619
X36594Y95752
X36531Y96873
X36468Y97917
X41653Y93436
X41678Y92291
X41754Y91171
X41766Y90038
X41741Y88867
X42018Y87571
X42710Y86551
X43931Y86425
X45441Y86400
X47152Y86450
X48410Y86438
X49770Y86463
X50915Y86350
X42773Y93650
X43830Y93738
X44862Y93965
X44900Y94959
X44824Y96218
X44774Y97628
X49683Y93683
X48490Y93759
X47795Y94650
X47720Y95829
X47674Y96916
X47659Y97944
X55874Y97928
X55904Y96780
X55965Y95647
X55950Y94590
X55186Y93621
X53822Y93632
X28281Y83630
X27118Y83609
X26006Y83546
X24873Y83567
X23804Y83588
X22734Y83641
X21486Y83641
X20427Y84060
X19746Y85046
X19504Y86137
X19536Y87333
X19546Y88581
X19588Y89903
X19578Y91046
X19567Y92179
X19630Y93217
X20605Y93899
X21969Y93878
X22913Y94434
X22871Y95661
X22777Y96822
X22802Y97829
X14555Y97906
X14492Y96783
X14492Y95693
X14482Y94570
X15216Y93794
X16390Y93563
X17648Y93207
X17648Y92053
X17616Y90925
X17599Y89832
X17590Y88661
X17677Y87508
X17625Y86170
X17704Y85113
X17979Y83892
X18525Y83054
X19450Y82443
X20823Y82141
X22012Y82132
X23244Y82141
X24432Y82141
X25690Y82141
X27019Y82141
X28260Y82141
X29562Y82141
X17366Y82410
X16334Y82838
X15365Y83417
X14534Y84109
X13805Y85028
X13213Y86085
X12735Y87004
X12307Y88011
X11854Y88993
X11357Y89934
X10895Y90941
X10476Y91948
X10025Y92944
X9584Y93920
X10602Y93936
X11564Y94446
X11498Y95473
X11527Y96609
X11552Y97707
X7926Y93311
X6982Y93757
X5933Y93748
X4803Y93626
X3723Y93899
X3366Y94875
X3335Y95934
X3324Y96962
X3303Y98000
X1983Y93136
X3006Y93145
X6038Y92498
X6073Y91598
X6082Y90392
X6379Y89151
X7141Y88266
X7970Y87448
X8871Y86620
X9606Y85571
X10381Y84543
X10998Y83643
X11539Y82737
X12244Y81881
X13352Y81441
X14484Y81289
X15604Y81277
X13779Y82466
X12888Y83347
X12206Y84301
X11545Y85298
X11116Y86326
X10475Y87432
X10040Y88374
X9496Y89353
X9098Y90423
X8681Y91420
X8319Y92385
X73425Y78128
X73409Y76839
X74850Y78062
X74810Y76707
X76110Y78169
X77222Y78705
X78148Y79478
X78443Y80863
X78476Y84384
X78477Y85735
X81665Y85809
X80670Y85390
X79924Y84274
X81410Y83867
X82314Y84547
X82988Y83278
X80621Y79825
X79851Y81045
X81101Y81415
X74981Y71425
X74676Y70409
X73812Y69596
X76302Y71425
X76200Y70155
X75692Y69088
X76200Y73787
X75540Y74955
X73533Y71501
X72695Y70587
X71552Y70358
X71882Y71806
X16383Y79172
X15189Y78740
X14072Y78003
X13056Y77089
X12192Y76022
X11532Y74981
X10795Y74066
X10033Y72923
X9017Y71958
X7976Y71095
X6680Y70434
X5791Y71323
X4750Y71679
X3607Y71653
X2489Y71653
X1930Y63500
X3048Y63500
X4216Y63551
X5359Y63602
X6223Y64338
X6325Y65456
X6401Y66700
X6756Y67818
X7976Y68453
X8941Y69342
X9957Y70129
X11074Y70968
X12065Y71831
X12573Y72822
X13106Y73863
X13818Y74930
X14427Y75895
X15316Y76759
X16281Y77521
X17551Y78105
X15672Y75590
X15215Y74498
X14834Y73330
X14402Y72187
X13919Y70993
X13462Y69850
X12929Y68656
X12421Y67412
X11862Y66269
X11125Y65227
X10566Y64135
X9855Y63144
X9093Y62078
X27076Y77445
X25641Y77330
X24651Y77368
X23520Y77457
X22403Y77483
X21285Y77445
X20168Y77419
X19177Y76886
X18263Y76225
X17475Y75336
X17043Y74219
X16662Y73050
X16154Y71857
X15875Y70841
X15392Y69647
X14884Y68250
X14376Y67132
X13843Y65938
X13437Y64999
X12802Y63856
X12116Y62763
X11354Y61722
X10617Y60757
X9804Y59868
X9195Y58903
X8230Y57912
X7264Y57023
X6426Y56236
X6198Y54991
X6198Y53823
X8153Y61468
X7290Y60782
X6350Y60173
X6045Y58903
X5182Y60528
X3785Y60528
X1880Y60427
X77368Y68402
X77622Y69469
X77749Y70587
X77775Y71780
X77775Y72873
X77775Y74066
X77521Y75209
X76403Y76302
X81483Y68199
X81051Y69215
X80696Y70358
X80696Y71501
X80645Y72644
X80747Y73838
X80874Y74955
X81356Y75997
X82144Y76683
X83109Y77318
X82118Y77978
X80848Y78156
X79426Y78867
X85115Y78105
X84023Y78156
X84074Y77089
X85065Y77089
X32385Y76657
X31318Y76606
X30201Y76556
X29134Y76403
X28092Y75768
X27762Y74600
X27559Y73431
X27534Y72085
X27508Y70891
X27559Y69748
X27584Y68580
X27559Y67488
X27534Y66243
X27584Y65126
X27534Y63881
X28473Y63348
X29210Y64135
X29210Y65303
X29134Y66548
X29159Y67767
X29134Y69063
X29108Y70155
X29058Y71222
X28981Y72466
X29159Y73508
X29362Y74600
X29845Y75514
X32385Y75159
X31394Y74676
X30785Y73711
X30683Y72542
X30709Y71425
X30734Y70307
X30683Y69215
X30734Y68097
X30734Y67005
X30734Y65862
X30709Y64745
X30658Y63627
X31598Y63195
X32309Y64008
X32283Y65126
X32385Y66269
X32360Y67361
X32309Y68555
X32258Y69647
X32258Y70790
X32283Y71882
X32360Y72949
X32817Y74066
X35484Y73990
X34544Y73584
X33985Y72644
X33858Y71501
X33833Y70434
X33858Y69393
X33833Y68250
X33807Y67183
X33833Y66116
X33807Y65049
X33807Y63957
X34595Y63094
X35484Y63881
X35458Y65024
X35433Y66116
X35433Y67234
X35458Y68402
X35433Y69494
X35357Y70637
X35281Y71806
X35814Y72949
X38735Y72619
X37770Y72161
X37211Y71196
X37211Y70129
X37109Y69037
X37135Y67970
X37135Y66904
X37135Y65862
X37084Y64821
X37109Y63703
X37821Y62967
X38557Y63754
X38583Y64897
X38583Y66040
X38583Y67183
X38583Y68351
X38608Y69393
X38684Y70485
X39091Y71603
X42291Y71399
X41275Y71171
X40513Y70383
X40259Y69317
X40183Y68097
X40259Y67031
X40234Y65989
X40259Y64922
X40208Y63779
X40945Y63043
X41783Y63881
X41758Y64948
X41758Y66040
X41758Y67056
X41783Y68224
X41758Y69367
X42266Y70358
X44577Y70053
X43764Y69418
X43307Y68351
X43383Y67158
X43332Y66065
X43358Y64922
X43358Y63703
X44196Y63043
X45009Y63754
X45009Y64872
X44933Y66015
X44882Y67158
X44983Y68250
X45593Y69266
X47777Y68834
X46965Y68123
X46507Y67031
X46457Y65938
X46482Y64846
X46482Y63779
X47295Y63119
X48108Y63779
X48108Y64948
X48133Y66040
X48311Y67081
X48870Y68021
X52553Y67793
X51486Y67716
X50394Y67361
X49809Y66523
X49606Y65456
X49632Y64414
X49657Y63348
X50648Y63144
X51435Y63957
X51359Y65126
X51384Y66497
X57328Y67081
X56109Y67031
X54915Y67005
X53873Y66624
X53213Y65786
X52984Y64745
X52934Y63576
X53924Y62840
X54026Y61722
X54127Y60604
X54102Y59538
X54102Y58318
X53950Y57125
X52807Y57074
X51689Y57074
X50470Y57048
X49022Y57048
X48006Y57023
X46634Y57048
X45390Y57048
X44018Y57074
X42723Y57074
X41580Y56896
X40361Y56871
X38786Y56845
X37719Y56744
X36678Y56744
X35306Y56794
X34112Y56794
X32588Y56794
X31217Y56769
X29921Y56769
X28651Y56794
X27381Y56794
X26264Y56820
X25121Y57201
X24841Y58318
X24790Y59639
X24867Y60909
X24841Y62611
X25349Y63729
X25756Y64846
X25832Y66015
X25857Y67335
X25806Y68605
X25781Y69825
X25705Y71018
X25730Y72263
X25857Y73431
X25756Y74549
X25857Y75743
X26518Y76683
X11041Y80579
X10150Y81407
X9507Y82316
X9009Y83294
X8433Y84239
X7645Y85095
X6929Y85900
X6116Y86746
X1958Y85181
X3145Y85209
X4229Y85174
X5794Y85245
X1783Y82499
X2997Y82492
X4011Y82403
X5339Y82334
X6142Y81529
X6030Y80297
X7183Y80333
X8293Y80455
X9360Y80569
X13858Y79134
X12758Y79091
X11727Y78969
X10671Y78819
X9611Y78725
X8573Y78636
X7595Y78478
X6650Y78278
X5941Y77508
X6071Y76434
X6050Y75217
X5370Y74336
X4341Y74369
X3292Y74359
X2035Y74442
X63258Y72901
X62268Y72902
X61252Y72899
X60084Y72898
X59017Y72897
X57755Y72897
X56644Y72899
X55554Y72897
X54441Y72897
X53277Y72903
X52158Y72901
X51049Y72901
X49941Y72903
X48829Y72897
X47717Y72900
X46622Y72903
X45575Y72898
X44378Y72899
X43297Y72901
X42087Y72900
X40957Y72893
X39853Y72896
X66284Y72900
X65299Y72901
X64301Y72897
X69380Y72899
X68351Y72898
X67309Y72902
X101190Y85905
X102253Y85905
X103348Y85901
X104472Y85904
X105479Y85901
X100145Y85897
X99034Y85903
X97939Y85901
X96787Y85898
X95631Y85899
X94525Y85905
X93414Y85899
X92298Y85902
X91166Y85897
X90096Y85900
X88929Y85901
X87726Y85900
X86536Y85904
X85339Y85899
X84100Y85904
X116463Y84656
X115452Y84656
X114427Y84656
X113400Y84656
X112382Y84656
X111371Y84656
X110368Y84654
X109204Y84654
X108020Y84656
X106819Y84654
X105732Y84655
X104650Y84656
X103557Y84657
X102422Y84656
X101282Y84656
X100167Y84656
X99051Y84655
X97934Y84656
X96820Y84656
X95722Y84655
X94590Y84657
X93479Y84653
X92379Y84655
X91204Y84655
X90110Y84655
X89017Y84655
X86782Y84654
X85724Y84656
X84676Y84654
X87925Y84654
X70438Y71649
X139813Y82156
X134605Y82156
X133612Y82149
X132608Y82146
X131434Y82151
X130362Y82146
X129149Y82156
X127938Y82150
X126879Y82155
X125791Y82150
X124630Y82148
X123525Y82150
X122408Y82154
X121291Y82147
X120175Y82154
X119068Y82151
X117979Y82149
X116904Y82146
X115771Y82150
X114683Y82155
X113447Y82155
X112329Y82149
X111212Y82154
X109022Y82146
X107965Y82148
X106916Y82144
X105861Y82152
X104812Y82149
X103732Y82144
X102617Y82150
X101568Y82150
X100415Y82152
X99290Y82153
X110175Y82151
X137683Y82155
X136687Y82153
X135650Y82150
X138740Y82148
X89208Y82151
X90394Y82146
X91628Y82151
X92816Y82151
X94075Y82151
X95403Y82151
X96644Y82151
X97946Y82151
X127143Y83405
X126140Y83401
X125101Y83414
X124106Y83400
X123060Y83406
X122068Y83404
X121064Y83406
X119890Y83401
X118807Y83402
X117567Y83403
X116425Y83404
X115360Y83405
X114247Y83400
X113080Y83405
X111974Y83402
X110863Y83403
X109732Y83409
X108630Y83403
X107524Y83401
X106432Y83401
X105355Y83403
X104168Y83403
X103095Y83401
X101898Y83399
X100796Y83399
X99695Y83399
X97486Y83406
X96421Y83403
X95377Y83406
X94327Y83403
X93260Y83401
X92183Y83402
X91073Y83400
X90024Y83400
X88863Y83399
X87715Y83410
X98631Y83401
X86461Y83411
X85325Y83407
X128257Y76666
X121103Y76685
X120103Y76682
X119099Y76680
X117938Y76680
X116850Y76683
X115605Y76679
X114470Y76679
X113393Y76677
X112282Y76679
X111141Y76679
X110007Y76678
X108904Y76679
X107780Y76681
X106666Y76684
X105569Y76685
X104467Y76682
X103395Y76684
X102206Y76676
X101128Y76684
X99913Y76682
X98836Y76684
X97775Y76685
X95513Y76682
X94456Y76682
X93407Y76682
X92372Y76681
X91295Y76682
X96666Y76685
X127238Y76686
X126186Y76680
X125202Y76679
X124185Y76680
X123134Y76680
X122147Y76681
X90162Y76683
X132586Y77926
X131540Y77923
X130529Y77936
X129510Y77936
X125424Y77929
X124432Y77927
X123428Y77939
X122254Y77939
X121179Y77936
X119934Y77931
X118802Y77927
X117724Y77928
X116610Y77940
X115421Y77938
X114336Y77930
X113227Y77937
X112111Y77941
X110996Y77940
X109888Y77941
X108802Y77940
X107724Y77936
X106534Y77928
X105456Y77936
X104246Y77927
X103170Y77933
X102059Y77927
X99842Y77939
X98784Y77941
X97736Y77934
X96691Y77926
X95624Y77934
X94546Y77935
X93436Y77938
X92390Y77938
X91230Y77935
X90115Y77926
X100995Y77941
X128489Y77937
X127463Y77932
X126493Y77936
X121129Y75432
X120126Y75432
X119122Y75435
X117961Y75435
X116873Y75436
X115628Y75434
X114493Y75435
X113413Y75434
X112305Y75434
X111164Y75434
X110030Y75433
X108927Y75435
X107802Y75436
X106693Y75435
X105592Y75435
X104490Y75435
X103418Y75436
X102236Y75437
X101148Y75434
X99951Y75434
X98859Y75432
X97798Y75435
X95536Y75432
X94479Y75434
X93433Y75432
X92395Y75436
X91313Y75432
X96682Y75435
X123157Y75435
X122169Y75437
X90183Y75433
X107201Y67686
X108336Y67615
X109289Y67135
X109847Y66208
X109954Y65159
X109987Y64127
X109167Y63157
X108196Y63751
X108207Y64861
X108057Y66330
X110670Y68052
X111089Y67038
X111343Y65989
X111394Y64879
X111369Y63848
X112146Y63061
X113012Y63551
X112984Y64635
X112984Y65778
X112916Y66924
X112583Y68052
X111448Y69022
X113287Y69794
X113985Y68938
X114343Y67948
X114409Y66916
X114422Y65829
X114506Y64732
X114554Y63718
X115313Y63007
X116048Y63784
X116078Y64920
X116030Y65982
X115987Y67056
X116017Y68196
X115679Y69273
X115054Y70178
X114084Y70381
X115773Y71547
X116713Y70731
X117305Y69682
X117493Y68618
X117516Y67541
X117653Y66411
X117683Y65377
X117645Y64292
X117930Y63271
X119002Y63330
X119154Y64437
X119197Y65509
X119162Y66672
X119146Y67846
X119123Y68953
X119057Y70140
X118717Y71138
X117503Y71531
X118397Y72901
X119540Y72814
X120698Y72756
X121768Y72370
X122306Y71394
X122423Y70256
X122525Y69195
X122456Y68009
X122491Y66916
X122474Y65885
X122486Y64767
X122364Y63622
X121544Y62984
X120805Y63906
X120683Y65029
X120757Y66274
X120807Y67536
X120797Y68768
X120807Y70150
X120266Y71504
X121600Y74077
X122669Y73637
X123335Y72768
X123812Y71661
X123977Y70541
X123977Y69357
X123965Y68224
X124015Y67053
X124054Y65908
X124015Y64864
X124015Y63642
X124945Y63139
X125550Y64021
X125473Y65141
X125463Y66223
X125451Y67356
X125349Y68514
X125336Y69647
X125362Y70780
X125209Y71938
X125085Y73157
X124003Y74013
X124770Y75397
X125740Y74770
X126606Y74051
X127010Y72918
X127112Y71722
X127099Y70541
X127135Y69294
X127099Y68059
X127185Y66926
X127236Y65756
X127198Y64686
X127211Y63464
X128646Y63490
X128633Y64610
X128671Y65682
X128748Y66876
X128608Y68021
X128633Y69131
X128557Y70338
X128532Y71471
X128494Y72565
X128433Y73698
X127965Y74745
X126858Y75286
X129212Y75976
X129992Y74945
X130231Y73825
X130269Y72641
X130256Y71371
X130282Y70137
X130244Y68842
X130256Y67671
X130320Y66551
X130244Y65380
X130294Y64285
X130985Y63226
X131729Y64120
X131867Y65227
X131793Y66576
X131641Y67935
X131679Y69141
X131729Y70427
X131704Y71598
X131679Y72829
X131729Y74165
X131628Y75349
X130673Y76266
X132804Y76680
X133347Y75611
X133439Y74305
X133528Y73071
X133584Y71892
X133584Y70696
X133675Y69535
X133675Y68229
X133637Y67033
X133619Y65837
X133584Y64496
X133746Y63353
X134770Y62878
X134943Y61725
X134965Y60549
X135118Y59266
X134943Y57612
X133789Y56916
X132616Y56873
X131397Y56807
X130203Y56698
X128897Y56807
X127549Y56873
X126375Y56721
X125179Y56741
X123939Y56787
X122720Y56787
X121567Y56787
X120480Y56721
X119263Y56764
X117937Y56830
X116718Y56741
X115413Y56741
X114087Y56721
X112870Y56787
X111694Y56787
X110520Y56807
X109454Y56850
X108151Y56830
X106779Y56873
X105512Y57097
X105113Y58331
X105113Y59581
X105204Y61267
X105402Y62520
X106108Y63678
X106652Y64767
X106218Y65999
X105329Y66708
X103825Y66959
X82288Y72299
X82286Y71023
X82446Y69817
X87767Y69093
X86360Y69096
X84760Y69451
X83861Y70526
X83563Y71976
X84910Y72502
X85433Y71399
X86464Y70640
X87836Y70411
X87932Y71684
X87810Y73061
X87528Y77757
X112371Y70420
X111230Y70423
X110096Y70419
X108993Y70423
X107868Y70422
X106760Y70416
X105661Y70421
X104556Y70424
X103482Y70420
X102302Y70423
X101214Y70420
X100017Y70422
X98925Y70423
X97866Y70421
X95602Y70424
X94542Y70423
X93499Y70424
X92456Y70422
X91379Y70424
X96748Y70424
X90251Y70422
X114549Y71683
X113464Y71685
X112355Y71682
X111214Y71685
X110081Y71682
X108977Y71686
X107853Y71685
X106744Y71678
X105645Y71683
X104541Y71686
X103466Y71682
X102287Y71685
X101199Y71683
X100002Y71685
X98910Y71686
X97851Y71683
X95587Y71686
X94527Y71685
X93483Y71686
X92441Y71685
X91364Y71686
X96732Y71686
X90236Y71684
X116921Y72942
X115676Y72940
X114542Y72940
X113462Y72940
X112353Y72940
X111212Y72940
X110078Y72939
X108975Y72940
X107851Y72942
X106742Y72940
X105640Y72941
X104539Y72941
X103466Y72942
X102284Y72942
X101196Y72940
X99999Y72940
X98908Y72938
X97846Y72941
X95585Y72938
X94527Y72940
X93481Y72938
X92438Y72937
X91362Y72938
X96730Y72941
X90231Y72939
X120184Y74190
X119181Y74193
X118019Y74193
X116931Y74189
X115686Y74192
X114552Y74193
X113472Y74192
X112363Y74192
X111222Y74192
X110088Y74191
X108985Y74193
X107861Y74191
X106752Y74193
X105651Y74193
X104549Y74193
X103477Y74191
X102296Y74188
X101206Y74192
X100009Y74192
X98918Y74190
X97856Y74193
X95595Y74190
X94537Y74192
X93491Y74190
X92448Y74189
X91372Y74190
X96740Y74193
X90241Y74191
X107015Y85964
X108194Y86091
X109408Y86017
X110622Y86035
X111836Y85999
X113015Y86017
X114211Y85999
X115407Y85999
X116566Y86017
X117726Y86236
X118740Y86998
X118849Y88102
X118885Y89334
X118976Y90424
X118923Y91585
X118831Y92616
X118814Y93741
X117726Y93904
X116601Y94013
X115641Y94485
X115641Y95608
X115735Y96766
X115766Y98049
X123934Y98171
X124010Y97081
X124148Y95979
X124010Y94831
X123406Y93894
X122273Y93820
X120840Y93835
X120945Y92641
X120780Y91539
X120810Y90300
X120825Y89228
X120780Y87988
X120658Y86718
X119995Y85692
X117770Y84668
X118953Y84821
X120988Y84811
X122095Y84823
X123203Y84795
X124303Y84795
X125423Y84846
X126550Y84823
X127650Y84966
X128814Y85087
X129675Y85781
X130066Y86855
X130111Y88108
X130035Y89408
X130020Y90587
X130081Y91750
X130005Y92883
X129824Y94000
X128615Y93985
X127348Y94107
X126873Y95085
X126738Y96352
X126822Y97739
X132006Y93579
X133312Y93777
X134597Y94031
X135268Y94973
X135141Y96317
X135161Y97478
X132062Y92326
X132024Y90985
X131971Y89426
X131897Y88102
X131935Y86797
X131790Y85545
X131191Y84620
X128191Y83403
X129245Y83462
X130454Y83500
X131641Y83500
X132712Y83513
X133797Y83462
X134874Y83528
X136068Y83602
X137097Y83622
X138247Y83536
X139398Y83660
X140503Y84082
X141181Y84971
X141209Y86251
X141290Y87346
X141155Y88539
X141054Y89710
X141079Y90881
X141143Y92027
X141067Y93261
X140172Y93876
X138839Y94028
X138046Y94757
X138123Y95804
X138072Y96949
X137958Y98168
X142992Y93236
X143861Y93927
X144968Y94041
X146187Y94242
X146063Y95362
X145974Y96383
X146037Y97300
X146136Y98257
X143142Y91951
X143093Y90767
X143116Y89497
X143104Y88313
X143096Y87186
X143116Y85959
X142969Y84699
X142644Y83703
X141910Y82916
X140978Y82299
X142908Y82266
X144028Y82624
X144983Y83180
X145717Y84102
X146284Y85037
X146860Y86043
X147269Y87081
X147688Y88130
X148107Y89136
X148600Y90134
X149106Y91140
X149667Y92324
X150421Y93729
X149200Y94211
X148958Y95255
X148913Y96434
X148974Y97853
X152070Y93002
X152748Y93835
X153972Y93970
X155224Y94061
X156342Y94153
X157234Y95014
X157295Y96101
X157218Y97295
X151676Y91884
X151011Y90950
X150604Y89830
X150076Y88849
X149578Y87866
X149009Y86736
X148412Y85634
X147973Y84521
X147447Y83452
X146820Y82382
X145707Y81531
X148433Y83116
X148979Y84206
X149545Y85298
X150205Y86411
X151054Y87363
X151915Y88161
X152817Y88938
X153731Y89756
X154046Y90889
X154183Y92187
X158275Y93170
X157066Y93231
X154092Y87399
X154122Y86220
X154455Y85057
X155572Y85057
X156870Y85057
X158214Y85176
X153157Y86825
X152326Y86025
X151569Y85207
X151178Y84135
X150513Y83048
X149728Y81854
X148836Y81341
X147749Y80645
X149804Y80495
X150980Y80419
X152143Y80312
X153337Y80101
X154031Y81069
X154516Y82187
X155664Y82337
X156794Y82263
X158125Y82306
X158206Y74295
X157157Y74221
X156058Y74138
X154798Y74265
X154074Y75113
X154043Y76256
X154013Y77473
X153246Y78323
X152146Y78595
X151077Y78699
X149974Y78910
X148831Y79035
X147752Y79035
X146578Y79131
X148234Y77965
X149052Y77147
X149576Y76182
X149995Y75093
X150457Y73990
X151067Y72951
X151801Y71956
X152695Y71219
X153624Y70124
X154518Y71232
X155639Y71295
X156848Y71232
X158079Y71244
X158199Y63106
X156870Y63061
X155496Y63061
X154379Y63393
X153685Y64298
X153655Y65522
X153594Y66792
X153185Y67970
X152204Y68694
X151267Y69451
X150302Y70493
X149667Y71595
X149261Y72624
X148666Y73685
X148100Y74856
X147686Y76053
X146830Y77147
X145847Y77965
X148504Y71580
X148791Y70328
X149123Y69134
X149349Y67848
X149697Y66413
X150061Y64948
X150543Y63452
X151117Y62123
X151917Y60975
X152568Y59797
X153716Y58814
X154183Y59888
X155270Y60505
X156418Y60493
X157610Y60566
X153927Y53889
X153896Y54902
X153533Y56096
X152491Y57018
X151481Y57696
X150604Y58618
X149789Y59632
X149019Y60673
X148504Y61971
X147975Y63287
X147841Y64359
X147584Y65507
X147282Y66639
X146995Y67909
X146784Y69207
X146522Y70442
X146434Y71620
X146413Y72873
X146088Y74232
X145364Y75375
X144673Y76553
X143459Y77079
X142245Y77386
X140597Y77622
X139187Y77653
X137678Y77610
X136304Y77610
X135125Y77668
X133855Y77775
X103299Y87442
X104518Y87399
X105672Y87442
X106845Y87833
X107584Y88616
X107671Y89748
X107780Y91008
X107759Y92075
X107714Y93208
X106736Y93861
X105496Y94013
X104511Y94719
X104635Y95753
X104623Y96949
X104635Y98168
X112801Y98181
X112878Y97061
X112852Y95966
X112890Y94757
X112238Y93939
X111054Y93901
X109606Y93815
X109606Y92517
X109631Y91410
X109631Y90327
X109695Y89144
X109543Y88100
X108890Y87117
X110096Y69134
X108993Y69138
X107868Y69137
X106760Y69130
X105661Y69136
X104556Y69138
X103482Y69135
X102302Y69138
X101214Y69135
X100017Y69137
X98925Y69138
X97866Y69136
X95602Y69138
X94542Y69138
X93499Y69138
X92456Y69137
X91379Y69138
X96748Y69138
X90251Y69136
M30