G04 EAGLE Gerber RS-274X export*
G75*
%MOMM*%
%FSLAX34Y34*%
%LPD*%
%INCopper Layer 2*%
%IPPOS*%
%AMOC8*
5,1,8,0,0,1.08239X$1,22.5*%
G01*
%ADD10C,0.756400*%

G36*
X1577246Y530865D02*
X1577246Y530865D01*
X1577352Y530863D01*
X1577749Y530885D01*
X1578147Y530901D01*
X1578252Y530913D01*
X1578358Y530919D01*
X1578753Y530973D01*
X1579148Y531020D01*
X1579252Y531041D01*
X1579357Y531056D01*
X1579745Y531141D01*
X1580136Y531219D01*
X1580238Y531248D01*
X1580341Y531271D01*
X1580721Y531386D01*
X1581105Y531495D01*
X1581204Y531533D01*
X1581306Y531563D01*
X1581676Y531709D01*
X1582049Y531848D01*
X1582145Y531893D01*
X1582244Y531931D01*
X1582602Y532106D01*
X1582962Y532274D01*
X1583054Y532326D01*
X1583150Y532373D01*
X1583493Y532575D01*
X1583839Y532771D01*
X1583926Y532831D01*
X1584018Y532884D01*
X1584344Y533113D01*
X1584673Y533336D01*
X1584756Y533403D01*
X1584843Y533463D01*
X1585148Y533717D01*
X1585460Y533966D01*
X1585538Y534039D01*
X1585619Y534106D01*
X1585904Y534383D01*
X1586194Y534656D01*
X1586266Y534734D01*
X1586342Y534808D01*
X1586605Y535107D01*
X1586872Y535402D01*
X1586937Y535485D01*
X1587007Y535565D01*
X1587245Y535885D01*
X1587488Y536199D01*
X1587546Y536288D01*
X1587610Y536373D01*
X1587822Y536710D01*
X1588039Y537043D01*
X1588090Y537136D01*
X1588147Y537226D01*
X1588331Y537578D01*
X1588522Y537927D01*
X1588565Y538024D01*
X1588614Y538118D01*
X1588771Y538485D01*
X1588933Y538848D01*
X1588968Y538947D01*
X1589010Y539045D01*
X1589137Y539423D01*
X1589269Y539797D01*
X1589296Y539900D01*
X1589330Y540001D01*
X1589427Y540388D01*
X1589529Y540771D01*
X1589548Y540875D01*
X1589574Y540978D01*
X1589640Y541372D01*
X1589711Y541762D01*
X1589722Y541868D01*
X1589740Y541972D01*
X1589774Y542369D01*
X1589814Y542765D01*
X1589817Y542871D01*
X1589826Y542977D01*
X1589839Y543560D01*
X1589839Y977140D01*
X1589835Y977246D01*
X1589837Y977352D01*
X1589815Y977749D01*
X1589799Y978147D01*
X1589787Y978252D01*
X1589781Y978358D01*
X1589727Y978753D01*
X1589680Y979148D01*
X1589659Y979252D01*
X1589644Y979357D01*
X1589559Y979745D01*
X1589481Y980136D01*
X1589452Y980238D01*
X1589429Y980341D01*
X1589314Y980721D01*
X1589205Y981105D01*
X1589167Y981204D01*
X1589137Y981306D01*
X1588991Y981676D01*
X1588852Y982049D01*
X1588807Y982145D01*
X1588769Y982244D01*
X1588594Y982602D01*
X1588426Y982962D01*
X1588374Y983054D01*
X1588327Y983150D01*
X1588125Y983493D01*
X1587929Y983839D01*
X1587869Y983926D01*
X1587816Y984018D01*
X1587587Y984344D01*
X1587364Y984673D01*
X1587297Y984756D01*
X1587237Y984843D01*
X1586983Y985148D01*
X1586734Y985460D01*
X1586661Y985538D01*
X1586594Y985619D01*
X1586317Y985904D01*
X1586044Y986194D01*
X1585966Y986266D01*
X1585892Y986342D01*
X1585593Y986605D01*
X1585298Y986872D01*
X1585215Y986937D01*
X1585135Y987007D01*
X1584815Y987245D01*
X1584501Y987488D01*
X1584412Y987546D01*
X1584327Y987610D01*
X1583990Y987822D01*
X1583657Y988039D01*
X1583564Y988090D01*
X1583474Y988147D01*
X1583122Y988331D01*
X1582773Y988522D01*
X1582676Y988565D01*
X1582582Y988614D01*
X1582215Y988771D01*
X1581852Y988933D01*
X1581753Y988968D01*
X1581655Y989010D01*
X1581277Y989137D01*
X1580903Y989269D01*
X1580800Y989296D01*
X1580699Y989330D01*
X1580312Y989427D01*
X1579929Y989529D01*
X1579825Y989548D01*
X1579722Y989574D01*
X1579328Y989640D01*
X1578938Y989711D01*
X1578832Y989722D01*
X1578728Y989740D01*
X1578331Y989774D01*
X1577935Y989814D01*
X1577829Y989817D01*
X1577723Y989826D01*
X1577140Y989839D01*
X22860Y989839D01*
X22754Y989835D01*
X22648Y989837D01*
X22251Y989815D01*
X21853Y989799D01*
X21748Y989787D01*
X21642Y989781D01*
X21247Y989727D01*
X20852Y989680D01*
X20748Y989659D01*
X20643Y989644D01*
X20255Y989559D01*
X19864Y989481D01*
X19762Y989452D01*
X19659Y989429D01*
X19279Y989314D01*
X18895Y989205D01*
X18796Y989167D01*
X18694Y989137D01*
X18324Y988991D01*
X17951Y988852D01*
X17855Y988807D01*
X17756Y988769D01*
X17398Y988594D01*
X17038Y988426D01*
X16946Y988374D01*
X16850Y988327D01*
X16507Y988125D01*
X16161Y987929D01*
X16074Y987869D01*
X15982Y987816D01*
X15656Y987587D01*
X15327Y987364D01*
X15244Y987297D01*
X15157Y987237D01*
X14852Y986983D01*
X14540Y986734D01*
X14462Y986661D01*
X14381Y986594D01*
X14096Y986317D01*
X13806Y986044D01*
X13734Y985966D01*
X13658Y985892D01*
X13395Y985593D01*
X13128Y985298D01*
X13063Y985215D01*
X12993Y985135D01*
X12755Y984815D01*
X12512Y984501D01*
X12454Y984412D01*
X12390Y984327D01*
X12178Y983990D01*
X11961Y983657D01*
X11910Y983564D01*
X11853Y983474D01*
X11669Y983122D01*
X11478Y982773D01*
X11435Y982676D01*
X11386Y982582D01*
X11229Y982215D01*
X11067Y981852D01*
X11032Y981753D01*
X10990Y981655D01*
X10863Y981277D01*
X10731Y980903D01*
X10704Y980800D01*
X10670Y980699D01*
X10573Y980312D01*
X10471Y979929D01*
X10452Y979825D01*
X10426Y979722D01*
X10360Y979328D01*
X10289Y978938D01*
X10278Y978832D01*
X10260Y978728D01*
X10226Y978331D01*
X10186Y977935D01*
X10183Y977829D01*
X10174Y977723D01*
X10161Y977140D01*
X10161Y543560D01*
X10165Y543454D01*
X10163Y543348D01*
X10185Y542951D01*
X10201Y542553D01*
X10213Y542448D01*
X10219Y542342D01*
X10273Y541947D01*
X10320Y541552D01*
X10341Y541448D01*
X10356Y541343D01*
X10441Y540955D01*
X10519Y540564D01*
X10548Y540462D01*
X10571Y540359D01*
X10686Y539979D01*
X10795Y539595D01*
X10833Y539496D01*
X10863Y539394D01*
X11009Y539024D01*
X11148Y538651D01*
X11193Y538555D01*
X11231Y538456D01*
X11406Y538098D01*
X11574Y537738D01*
X11626Y537646D01*
X11673Y537550D01*
X11875Y537207D01*
X12071Y536861D01*
X12131Y536774D01*
X12184Y536682D01*
X12413Y536356D01*
X12636Y536027D01*
X12703Y535944D01*
X12763Y535857D01*
X13017Y535552D01*
X13266Y535240D01*
X13339Y535162D01*
X13406Y535081D01*
X13683Y534796D01*
X13956Y534506D01*
X14034Y534434D01*
X14108Y534358D01*
X14407Y534095D01*
X14702Y533828D01*
X14785Y533763D01*
X14865Y533693D01*
X15185Y533455D01*
X15499Y533212D01*
X15588Y533154D01*
X15673Y533090D01*
X16010Y532878D01*
X16343Y532661D01*
X16436Y532610D01*
X16526Y532553D01*
X16878Y532369D01*
X17227Y532178D01*
X17324Y532135D01*
X17418Y532086D01*
X17785Y531929D01*
X18148Y531767D01*
X18247Y531732D01*
X18345Y531690D01*
X18723Y531563D01*
X19097Y531431D01*
X19200Y531404D01*
X19301Y531370D01*
X19688Y531273D01*
X20071Y531171D01*
X20175Y531152D01*
X20278Y531126D01*
X20672Y531060D01*
X21062Y530989D01*
X21168Y530978D01*
X21272Y530960D01*
X21669Y530926D01*
X22065Y530886D01*
X22171Y530883D01*
X22277Y530874D01*
X22860Y530861D01*
X1577140Y530861D01*
X1577246Y530865D01*
G37*
D10*
X703985Y860640D03*
X714716Y860585D03*
X725673Y860554D03*
X737006Y860679D03*
X746930Y860654D03*
X757022Y859338D03*
X766079Y853506D03*
X771760Y842424D03*
X772029Y830761D03*
X772012Y819593D03*
X770602Y808027D03*
X762900Y797900D03*
X751700Y806458D03*
X693491Y860513D03*
X682630Y860621D03*
X671633Y860650D03*
X660110Y860698D03*
X648527Y860706D03*
X637539Y860717D03*
X626351Y860632D03*
X615215Y860538D03*
X603921Y860534D03*
X593179Y860468D03*
X581403Y860223D03*
X569909Y860717D03*
X520600Y865400D03*
X511900Y876700D03*
X509000Y889600D03*
X508900Y901800D03*
X509100Y915500D03*
X508800Y927000D03*
X508500Y937700D03*
X526400Y937300D03*
X526900Y926600D03*
X528100Y915800D03*
X527600Y902700D03*
X528400Y891100D03*
X534700Y880800D03*
X545500Y876400D03*
X558700Y874400D03*
X572300Y873500D03*
X557604Y860428D03*
X545628Y860377D03*
X533237Y860425D03*
X757304Y815304D03*
X758154Y825198D03*
X758276Y835332D03*
X753603Y844680D03*
X743651Y847479D03*
X733387Y847580D03*
X723384Y847349D03*
X713311Y847326D03*
X703042Y847496D03*
X692678Y847377D03*
X682752Y847301D03*
X672716Y847275D03*
X660974Y847326D03*
X649242Y847377D03*
X637106Y847377D03*
X626196Y847656D03*
X615432Y847651D03*
X604357Y847560D03*
X593212Y847628D03*
X581734Y847428D03*
X740639Y813356D03*
X744644Y821731D03*
X743189Y831492D03*
X733557Y834034D03*
X723453Y833895D03*
X713113Y833968D03*
X703189Y834088D03*
X704390Y766633D03*
X704454Y728985D03*
X704390Y703758D03*
X737583Y726879D03*
X750265Y726455D03*
X763087Y726166D03*
X784563Y825581D03*
X797184Y825370D03*
X829005Y859028D03*
X809589Y824931D03*
X835391Y846541D03*
X822089Y824550D03*
X841845Y834093D03*
X880910Y821494D03*
X890623Y779379D03*
X891291Y766813D03*
X891372Y754344D03*
X891621Y741876D03*
X891515Y729366D03*
X891484Y716852D03*
X891614Y704210D03*
X848164Y737756D03*
X891611Y691355D03*
X835696Y737591D03*
X822858Y736864D03*
X570710Y847349D03*
X559544Y847288D03*
X548378Y847349D03*
X537032Y847044D03*
X526108Y846983D03*
X514761Y846925D03*
X503779Y847166D03*
X492854Y846983D03*
X480901Y847105D03*
X470040Y847105D03*
X459054Y847105D03*
X436857Y847275D03*
X426281Y847296D03*
X415795Y847225D03*
X405237Y847369D03*
X394678Y847225D03*
X383901Y847443D03*
X373035Y847019D03*
X362113Y846846D03*
X350665Y846846D03*
X339306Y847456D03*
X326984Y847982D03*
X316324Y850166D03*
X307937Y857245D03*
X305227Y868520D03*
X304439Y879119D03*
X304589Y900875D03*
X304589Y889846D03*
X714289Y821454D03*
X726156Y819031D03*
X632823Y753999D03*
X622864Y753991D03*
X612828Y753966D03*
X601086Y753999D03*
X590337Y753928D03*
X577855Y753915D03*
X566641Y753943D03*
X555788Y753915D03*
X544652Y753956D03*
X533016Y753979D03*
X521782Y753958D03*
X510738Y753956D03*
X499656Y753979D03*
X488539Y753969D03*
X477451Y753994D03*
X466535Y753991D03*
X455788Y753930D03*
X443868Y753905D03*
X433111Y753935D03*
X421036Y753918D03*
X409811Y753966D03*
X398775Y753991D03*
X376969Y753966D03*
X366392Y753986D03*
X355907Y753915D03*
X345455Y753781D03*
X334790Y753915D03*
X663191Y753963D03*
X653174Y753941D03*
X643232Y753991D03*
X694009Y753953D03*
X683722Y753925D03*
X673161Y753948D03*
X632902Y766618D03*
X622976Y766542D03*
X612940Y766516D03*
X601198Y766567D03*
X590448Y766478D03*
X577997Y766435D03*
X566651Y766615D03*
X555876Y766663D03*
X544764Y766557D03*
X533253Y766608D03*
X522018Y766425D03*
X510934Y766590D03*
X499768Y766529D03*
X488602Y766590D03*
X477538Y766567D03*
X466646Y766542D03*
X455900Y766481D03*
X444002Y766407D03*
X433222Y766486D03*
X421051Y766638D03*
X410312Y766564D03*
X399644Y766542D03*
X377081Y766516D03*
X366504Y766536D03*
X356019Y766465D03*
X345669Y766453D03*
X334902Y766465D03*
X388610Y766567D03*
X388148Y753958D03*
X694327Y766501D03*
X683806Y766445D03*
X673887Y766557D03*
X663745Y766572D03*
X653285Y766440D03*
X643362Y766559D03*
X692729Y834078D03*
X682803Y834070D03*
X672767Y834045D03*
X661025Y834095D03*
X650276Y834006D03*
X637825Y833963D03*
X626405Y833874D03*
X615726Y833877D03*
X604591Y834085D03*
X592897Y833851D03*
X581845Y833953D03*
X570761Y833984D03*
X559595Y834057D03*
X548465Y834060D03*
X537365Y834095D03*
X526473Y834070D03*
X515727Y834009D03*
X503829Y833935D03*
X493050Y834014D03*
X480952Y833874D03*
X470091Y833874D03*
X459105Y833874D03*
X436908Y834045D03*
X426331Y834065D03*
X415846Y833994D03*
X405394Y833859D03*
X394729Y833994D03*
X383952Y834001D03*
X372852Y834083D03*
X362367Y834085D03*
X350784Y834001D03*
X339636Y833910D03*
X662201Y821444D03*
X652275Y821385D03*
X642239Y821360D03*
X630497Y821411D03*
X619747Y821322D03*
X607647Y821454D03*
X595539Y821400D03*
X584944Y821446D03*
X574063Y821400D03*
X562453Y821378D03*
X551404Y821395D03*
X540233Y821433D03*
X529067Y821373D03*
X517901Y821433D03*
X506837Y821411D03*
X495945Y821385D03*
X485198Y821324D03*
X473862Y821398D03*
X462521Y821329D03*
X450629Y821451D03*
X439445Y821393D03*
X428275Y821433D03*
X406380Y821360D03*
X395803Y821380D03*
X385318Y821309D03*
X374762Y821421D03*
X364200Y821309D03*
X353423Y821317D03*
X342323Y821398D03*
X331838Y821400D03*
X320256Y821317D03*
X309108Y821312D03*
X417909Y821411D03*
X448437Y834095D03*
X692983Y821444D03*
X683024Y821431D03*
X672661Y821403D03*
X703552Y821383D03*
X448386Y847326D03*
X632877Y741449D03*
X622917Y741474D03*
X612882Y741449D03*
X601165Y741469D03*
X590403Y741459D03*
X577850Y741451D03*
X566694Y741426D03*
X555841Y741469D03*
X544675Y741462D03*
X533070Y741462D03*
X521835Y741441D03*
X510791Y741439D03*
X499709Y741462D03*
X488592Y741451D03*
X477505Y741462D03*
X466588Y741474D03*
X456019Y741421D03*
X444045Y741472D03*
X433164Y741459D03*
X421132Y741441D03*
X409865Y741449D03*
X398828Y741474D03*
X377022Y741449D03*
X366446Y741469D03*
X663245Y741446D03*
X653250Y741424D03*
X643473Y741424D03*
X694063Y741436D03*
X683776Y741429D03*
X673214Y741431D03*
X388201Y741441D03*
X633164Y703702D03*
X623265Y703715D03*
X613108Y703689D03*
X601426Y703679D03*
X590758Y703671D03*
X578137Y703666D03*
X567022Y703689D03*
X556128Y703666D03*
X544993Y703669D03*
X533357Y703725D03*
X522166Y703704D03*
X511078Y703705D03*
X499996Y703725D03*
X488879Y703666D03*
X477756Y703692D03*
X466804Y703725D03*
X456331Y703674D03*
X663428Y703699D03*
X653572Y703710D03*
X643590Y703671D03*
X694383Y703687D03*
X684098Y703677D03*
X673677Y703715D03*
X499948Y690778D03*
X488831Y690720D03*
X632884Y716483D03*
X622986Y716496D03*
X612828Y716471D03*
X601147Y716460D03*
X590479Y716453D03*
X577858Y716448D03*
X566743Y716471D03*
X555848Y716448D03*
X544713Y716450D03*
X533077Y716506D03*
X521886Y716486D03*
X510799Y716486D03*
X499717Y716506D03*
X488599Y716448D03*
X477477Y716473D03*
X466524Y716506D03*
X456052Y716455D03*
X444089Y716465D03*
X433276Y716491D03*
X663148Y716481D03*
X653293Y716491D03*
X643311Y716453D03*
X694103Y716468D03*
X683819Y716458D03*
X673397Y716496D03*
X326664Y833895D03*
X315450Y834258D03*
X303726Y838484D03*
X293825Y846277D03*
X288435Y856546D03*
X287269Y867982D03*
X286964Y879533D03*
X286591Y891370D03*
X285961Y903326D03*
X286172Y916859D03*
X286276Y928187D03*
X283444Y938571D03*
X305676Y912556D03*
X305361Y923676D03*
X306200Y935739D03*
X319380Y934865D03*
X332468Y936755D03*
X337627Y945817D03*
X338005Y956767D03*
X337627Y968347D03*
X338005Y978418D03*
X270965Y936996D03*
X259850Y938467D03*
X254818Y949269D03*
X255130Y960072D03*
X254818Y971507D03*
X254818Y981994D03*
X404825Y858586D03*
X399539Y868279D03*
X397276Y879607D03*
X396898Y891565D03*
X396519Y902894D03*
X396143Y914725D03*
X396268Y926810D03*
X395641Y937130D03*
X385196Y937509D03*
X373113Y937887D03*
X365816Y946193D03*
X365940Y957524D03*
X365313Y968726D03*
X364683Y979173D03*
X416530Y934362D03*
X416781Y922909D03*
X417535Y911705D03*
X417662Y900377D03*
X417411Y888670D03*
X420180Y875706D03*
X427098Y865510D03*
X439306Y864250D03*
X454406Y863999D03*
X471521Y864502D03*
X484104Y864377D03*
X497695Y864629D03*
X509148Y863496D03*
X427728Y936503D03*
X438300Y937384D03*
X448617Y939650D03*
X448996Y949594D03*
X448241Y962180D03*
X447736Y976279D03*
X496829Y936831D03*
X484899Y937588D03*
X477952Y946501D03*
X477197Y958286D03*
X476743Y969162D03*
X476593Y979437D03*
X558742Y979284D03*
X559044Y967804D03*
X559648Y956473D03*
X559499Y945896D03*
X551856Y936211D03*
X538216Y936318D03*
X282814Y836300D03*
X271175Y836092D03*
X260060Y835462D03*
X248735Y835673D03*
X238039Y835881D03*
X227343Y836407D03*
X214864Y836407D03*
X204272Y840600D03*
X197457Y850461D03*
X195044Y861370D03*
X195359Y873328D03*
X195463Y885810D03*
X195885Y899025D03*
X195778Y910460D03*
X195674Y921786D03*
X196304Y932172D03*
X206055Y938990D03*
X219687Y938779D03*
X229126Y944339D03*
X228707Y956612D03*
X227769Y968223D03*
X228021Y978291D03*
X145550Y979058D03*
X144920Y967834D03*
X144920Y956927D03*
X144816Y945703D03*
X152156Y937941D03*
X163901Y935634D03*
X176484Y932066D03*
X176484Y920529D03*
X176164Y909251D03*
X175989Y898324D03*
X175900Y886612D03*
X176774Y875076D03*
X176251Y861703D03*
X177038Y851129D03*
X179789Y838921D03*
X185250Y830544D03*
X194498Y824426D03*
X208232Y821411D03*
X220116Y821324D03*
X232438Y821411D03*
X244320Y821411D03*
X256903Y821411D03*
X270187Y821411D03*
X282595Y821411D03*
X295615Y821411D03*
X173660Y824098D03*
X163340Y828375D03*
X153650Y834166D03*
X145344Y841091D03*
X138046Y850278D03*
X132131Y860852D03*
X127351Y870041D03*
X123071Y880110D03*
X118542Y889930D03*
X113566Y899340D03*
X108953Y909411D03*
X104757Y919480D03*
X100249Y929444D03*
X95844Y939201D03*
X106025Y939361D03*
X115636Y944458D03*
X114981Y954730D03*
X115273Y966092D03*
X115519Y977075D03*
X79256Y933112D03*
X69820Y937570D03*
X59332Y937481D03*
X48026Y936262D03*
X37226Y938990D03*
X33660Y948746D03*
X33345Y959338D03*
X33241Y969617D03*
X33033Y980003D03*
X19835Y931365D03*
X30058Y931451D03*
X60381Y924984D03*
X60731Y915980D03*
X60818Y903920D03*
X63790Y891507D03*
X71412Y882663D03*
X79695Y874481D03*
X88715Y866196D03*
X96055Y855706D03*
X103815Y845426D03*
X109985Y836432D03*
X115395Y827369D03*
X122441Y818810D03*
X133515Y814405D03*
X144841Y812894D03*
X156040Y812767D03*
X137790Y824657D03*
X128877Y833468D03*
X122060Y843013D03*
X115453Y852978D03*
X111155Y863257D03*
X104750Y874316D03*
X100401Y883745D03*
X94963Y893534D03*
X90978Y904232D03*
X86810Y914204D03*
X83188Y923846D03*
X734245Y781281D03*
X734093Y768386D03*
X748505Y780623D03*
X748101Y767070D03*
X761098Y781685D03*
X772224Y787047D03*
X781477Y794784D03*
X784428Y808629D03*
X784763Y843839D03*
X784766Y857349D03*
X816651Y858091D03*
X806699Y853902D03*
X799236Y842736D03*
X814103Y838670D03*
X823143Y845467D03*
X829879Y832782D03*
X806214Y798251D03*
X798507Y810451D03*
X811007Y814151D03*
X749808Y714248D03*
X746760Y704088D03*
X738124Y695960D03*
X763016Y714248D03*
X762000Y701548D03*
X756920Y690880D03*
X762000Y737870D03*
X755396Y749554D03*
X735330Y715010D03*
X726948Y705866D03*
X715518Y703580D03*
X718820Y718058D03*
X163830Y791718D03*
X151892Y787400D03*
X140716Y780034D03*
X130556Y770890D03*
X121920Y760222D03*
X115316Y749808D03*
X107950Y740664D03*
X100330Y729234D03*
X90170Y719582D03*
X79756Y710946D03*
X66802Y704342D03*
X57912Y713232D03*
X47498Y716788D03*
X36068Y716534D03*
X24892Y716534D03*
X19304Y635000D03*
X30480Y635000D03*
X42164Y635508D03*
X53594Y636016D03*
X62230Y643382D03*
X63246Y654558D03*
X64008Y667004D03*
X67564Y678180D03*
X79756Y684530D03*
X89408Y693420D03*
X99568Y701294D03*
X110744Y709676D03*
X120650Y718312D03*
X125730Y728218D03*
X131064Y738632D03*
X138176Y749300D03*
X144272Y758952D03*
X153162Y767588D03*
X162814Y775208D03*
X175514Y781050D03*
X156718Y755904D03*
X152146Y744982D03*
X148336Y733298D03*
X144018Y721868D03*
X139192Y709930D03*
X134620Y698500D03*
X129286Y686562D03*
X124206Y674116D03*
X118618Y662686D03*
X111252Y652272D03*
X105664Y641350D03*
X98552Y631444D03*
X90932Y620776D03*
X270764Y774446D03*
X256413Y773303D03*
X246507Y773684D03*
X235204Y774573D03*
X224028Y774827D03*
X212852Y774446D03*
X201676Y774192D03*
X191770Y768858D03*
X182626Y762254D03*
X174752Y753364D03*
X170434Y742188D03*
X166624Y730504D03*
X161544Y718566D03*
X158750Y708406D03*
X153924Y696468D03*
X148844Y682498D03*
X143764Y671322D03*
X138430Y659384D03*
X134366Y649986D03*
X128016Y638556D03*
X121158Y627634D03*
X113538Y617220D03*
X106172Y607568D03*
X98044Y598678D03*
X91948Y589026D03*
X82296Y579120D03*
X72644Y570230D03*
X64262Y562356D03*
X61976Y549910D03*
X61976Y538226D03*
X81534Y614680D03*
X72898Y607822D03*
X63500Y601726D03*
X60452Y589026D03*
X51816Y605282D03*
X37846Y605282D03*
X18796Y604266D03*
X773684Y684022D03*
X776224Y694690D03*
X777494Y705866D03*
X777748Y717804D03*
X777748Y728726D03*
X777748Y740664D03*
X775208Y752094D03*
X764032Y763016D03*
X814832Y681990D03*
X810514Y692150D03*
X806958Y703580D03*
X806958Y715010D03*
X806450Y726440D03*
X807466Y738378D03*
X808736Y749554D03*
X813562Y759968D03*
X821436Y766826D03*
X831088Y773176D03*
X821182Y779780D03*
X808482Y781558D03*
X794258Y788670D03*
X851154Y781050D03*
X840232Y781558D03*
X840740Y770890D03*
X850646Y770890D03*
X323850Y766572D03*
X313182Y766064D03*
X302006Y765556D03*
X291338Y764032D03*
X280924Y757682D03*
X277622Y745998D03*
X275590Y734314D03*
X275336Y720852D03*
X275082Y708914D03*
X275590Y697484D03*
X275844Y685800D03*
X275590Y674878D03*
X275336Y662432D03*
X275844Y651256D03*
X275336Y638810D03*
X284734Y633476D03*
X292100Y641350D03*
X292100Y653034D03*
X291338Y665480D03*
X291592Y677672D03*
X291338Y690626D03*
X291084Y701548D03*
X290576Y712216D03*
X289814Y724662D03*
X291592Y735076D03*
X293624Y745998D03*
X298450Y755142D03*
X323850Y751586D03*
X313944Y746760D03*
X307848Y737108D03*
X306832Y725424D03*
X307086Y714248D03*
X307340Y703072D03*
X306832Y692150D03*
X307340Y680974D03*
X307340Y670052D03*
X307340Y658622D03*
X307086Y647446D03*
X306578Y636270D03*
X315976Y631952D03*
X323088Y640080D03*
X322834Y651256D03*
X323850Y662686D03*
X323596Y673608D03*
X323088Y685546D03*
X322580Y696468D03*
X322580Y707898D03*
X322834Y718820D03*
X323596Y729488D03*
X328168Y740664D03*
X354838Y739902D03*
X345440Y735838D03*
X339852Y726440D03*
X338582Y715010D03*
X338328Y704342D03*
X338582Y693928D03*
X338328Y682498D03*
X338074Y671830D03*
X338328Y661162D03*
X338074Y650494D03*
X338074Y639572D03*
X345948Y630936D03*
X354838Y638810D03*
X354584Y650240D03*
X354330Y661162D03*
X354330Y672338D03*
X354584Y684022D03*
X354330Y694944D03*
X353568Y706374D03*
X352806Y718058D03*
X358140Y729488D03*
X387350Y726186D03*
X377698Y721614D03*
X372110Y711962D03*
X372110Y701294D03*
X371094Y690372D03*
X371348Y679704D03*
X371348Y669036D03*
X371348Y658622D03*
X370840Y648208D03*
X371094Y637032D03*
X378206Y629666D03*
X385572Y637540D03*
X385826Y648970D03*
X385826Y660400D03*
X385826Y671830D03*
X385826Y683514D03*
X386080Y693928D03*
X386842Y704850D03*
X390906Y716026D03*
X422910Y713994D03*
X412750Y711708D03*
X405130Y703834D03*
X402590Y693166D03*
X401828Y680974D03*
X402590Y670306D03*
X402336Y659892D03*
X402590Y649224D03*
X402082Y637794D03*
X409448Y630428D03*
X417830Y638810D03*
X417576Y649478D03*
X417576Y660400D03*
X417576Y670560D03*
X417830Y682244D03*
X417576Y693674D03*
X422656Y703580D03*
X445770Y700532D03*
X437642Y694182D03*
X433070Y683514D03*
X433832Y671576D03*
X433324Y660654D03*
X433578Y649224D03*
X433578Y637032D03*
X441960Y630428D03*
X450088Y637540D03*
X450088Y648716D03*
X449326Y660146D03*
X448818Y671576D03*
X449834Y682498D03*
X455930Y692658D03*
X477774Y688340D03*
X469646Y681228D03*
X465074Y670306D03*
X464566Y659384D03*
X464820Y648462D03*
X464820Y637794D03*
X472948Y631190D03*
X481076Y637794D03*
X481076Y649478D03*
X481330Y660400D03*
X483108Y670814D03*
X488696Y680212D03*
X525526Y677926D03*
X514858Y677164D03*
X503936Y673608D03*
X498094Y665226D03*
X496062Y654558D03*
X496316Y644144D03*
X496570Y633476D03*
X506476Y631444D03*
X514350Y639572D03*
X513588Y651256D03*
X513842Y664972D03*
X573278Y670814D03*
X561086Y670306D03*
X549148Y670052D03*
X538734Y666242D03*
X532130Y657860D03*
X529844Y647446D03*
X529336Y635762D03*
X539242Y628396D03*
X540258Y617220D03*
X541274Y606044D03*
X541020Y595376D03*
X541020Y583184D03*
X539496Y571246D03*
X528066Y570738D03*
X516890Y570738D03*
X504698Y570484D03*
X490220Y570484D03*
X480060Y570230D03*
X466344Y570484D03*
X453898Y570484D03*
X440182Y570738D03*
X427228Y570738D03*
X415798Y568960D03*
X403606Y568706D03*
X387858Y568452D03*
X377190Y567436D03*
X366776Y567436D03*
X353060Y567944D03*
X341122Y567944D03*
X325882Y567944D03*
X312166Y567690D03*
X299212Y567690D03*
X286512Y567944D03*
X273812Y567944D03*
X262636Y568198D03*
X251206Y572008D03*
X248412Y583184D03*
X247904Y596392D03*
X248666Y609092D03*
X248412Y626110D03*
X253492Y637286D03*
X257556Y648462D03*
X258318Y660146D03*
X258572Y673354D03*
X258064Y686054D03*
X257810Y698246D03*
X257048Y710184D03*
X257302Y722630D03*
X258572Y734314D03*
X257556Y745490D03*
X258572Y757428D03*
X265176Y766826D03*
X110414Y805790D03*
X101498Y814070D03*
X95072Y823163D03*
X90094Y832942D03*
X84328Y842391D03*
X76454Y850951D03*
X69291Y859003D03*
X61163Y867461D03*
X19583Y851814D03*
X31445Y852094D03*
X42291Y851738D03*
X57937Y852449D03*
X17831Y824992D03*
X29972Y824916D03*
X40107Y824027D03*
X53391Y823341D03*
X61417Y815289D03*
X60300Y802970D03*
X71831Y803326D03*
X82931Y804545D03*
X93599Y805688D03*
X138582Y791337D03*
X127584Y790905D03*
X117272Y789686D03*
X106705Y788187D03*
X96114Y787248D03*
X85725Y786359D03*
X75946Y784784D03*
X66497Y782777D03*
X59411Y775081D03*
X60706Y764337D03*
X60503Y752170D03*
X53696Y743356D03*
X43409Y743687D03*
X32918Y743585D03*
X20345Y744423D03*
X632579Y729005D03*
X622681Y729018D03*
X612524Y728993D03*
X600842Y728983D03*
X590174Y728975D03*
X577553Y728970D03*
X566438Y728993D03*
X555544Y728970D03*
X544408Y728972D03*
X532773Y729028D03*
X521581Y729008D03*
X510494Y729008D03*
X499412Y729028D03*
X488295Y728970D03*
X477172Y728995D03*
X466220Y729028D03*
X455747Y728978D03*
X443784Y728988D03*
X432971Y729013D03*
X420870Y728995D03*
X409567Y728932D03*
X398531Y728957D03*
X662843Y729003D03*
X652988Y729013D03*
X643006Y728975D03*
X693798Y728990D03*
X683514Y728980D03*
X673092Y729018D03*
X1011898Y859049D03*
X1022528Y859045D03*
X1033485Y859015D03*
X1044715Y859037D03*
X1054792Y859013D03*
X1001454Y858974D03*
X990340Y859031D03*
X979394Y859009D03*
X967871Y858980D03*
X956312Y858988D03*
X945249Y859051D03*
X934137Y858991D03*
X922976Y859023D03*
X911656Y858969D03*
X900957Y858997D03*
X889290Y859014D03*
X877263Y858999D03*
X865364Y859040D03*
X853388Y858990D03*
X840998Y859038D03*
X1164628Y846564D03*
X1154524Y846562D03*
X1144273Y846564D03*
X1134003Y846557D03*
X1123818Y846564D03*
X1113714Y846564D03*
X1103678Y846539D03*
X1092037Y846539D03*
X1080204Y846564D03*
X1068194Y846539D03*
X1057321Y846554D03*
X1046495Y846559D03*
X1035573Y846569D03*
X1024225Y846562D03*
X1012822Y846564D03*
X1001672Y846562D03*
X990506Y846552D03*
X979340Y846562D03*
X968197Y846562D03*
X957222Y846551D03*
X945901Y846569D03*
X934791Y846531D03*
X923790Y846551D03*
X912040Y846546D03*
X901103Y846546D03*
X890169Y846549D03*
X867819Y846539D03*
X857242Y846559D03*
X846757Y846539D03*
X879246Y846539D03*
X704378Y716486D03*
X1398133Y821555D03*
X1346045Y821563D03*
X1336119Y821487D03*
X1326083Y821461D03*
X1314341Y821512D03*
X1303625Y821456D03*
X1291491Y821555D03*
X1279383Y821502D03*
X1268788Y821548D03*
X1257907Y821502D03*
X1246297Y821479D03*
X1235248Y821497D03*
X1224077Y821535D03*
X1212911Y821474D03*
X1201745Y821535D03*
X1190681Y821512D03*
X1179789Y821487D03*
X1169043Y821459D03*
X1157707Y821499D03*
X1146825Y821550D03*
X1134473Y821553D03*
X1123290Y821494D03*
X1112119Y821535D03*
X1090224Y821461D03*
X1079647Y821482D03*
X1069162Y821436D03*
X1058606Y821522D03*
X1048121Y821487D03*
X1037318Y821444D03*
X1026168Y821499D03*
X1015683Y821502D03*
X1004151Y821520D03*
X992901Y821530D03*
X1101753Y821512D03*
X1376827Y821545D03*
X1366868Y821533D03*
X1356505Y821505D03*
X1387396Y821484D03*
X892076Y821512D03*
X903943Y821461D03*
X916282Y821512D03*
X928164Y821512D03*
X940747Y821512D03*
X954032Y821512D03*
X966440Y821512D03*
X979460Y821512D03*
X1271431Y834051D03*
X1261403Y834013D03*
X1251012Y834138D03*
X1241063Y834003D03*
X1230603Y834061D03*
X1220677Y834036D03*
X1210641Y834061D03*
X1198899Y834011D03*
X1188073Y834023D03*
X1175673Y834031D03*
X1164253Y834044D03*
X1153600Y834046D03*
X1142465Y834000D03*
X1130796Y834046D03*
X1119745Y834021D03*
X1108635Y834033D03*
X1097317Y834089D03*
X1086303Y834033D03*
X1075239Y834011D03*
X1064322Y834010D03*
X1053550Y834026D03*
X1041678Y834028D03*
X1030949Y834005D03*
X1018978Y833993D03*
X1007964Y833993D03*
X996954Y833993D03*
X974858Y834061D03*
X964205Y834031D03*
X953771Y834061D03*
X943268Y834028D03*
X932603Y834011D03*
X921825Y834018D03*
X910726Y833998D03*
X900241Y834000D03*
X888633Y833993D03*
X877155Y834104D03*
X986311Y834011D03*
X864615Y834115D03*
X853248Y834071D03*
X1282570Y766658D03*
X1211031Y766846D03*
X1201029Y766821D03*
X1190993Y766796D03*
X1179378Y766796D03*
X1168502Y766834D03*
X1156051Y766790D03*
X1144704Y766793D03*
X1133930Y766765D03*
X1122817Y766785D03*
X1111407Y766785D03*
X1100071Y766780D03*
X1089038Y766793D03*
X1077796Y766808D03*
X1066655Y766844D03*
X1055693Y766846D03*
X1044674Y766821D03*
X1033953Y766836D03*
X1022055Y766762D03*
X1011276Y766841D03*
X999129Y766816D03*
X988365Y766844D03*
X977748Y766846D03*
X955134Y766821D03*
X944557Y766816D03*
X934072Y766821D03*
X923722Y766808D03*
X912955Y766821D03*
X966663Y766846D03*
X1272380Y766856D03*
X1261859Y766801D03*
X1252017Y766785D03*
X1241849Y766801D03*
X1231339Y766796D03*
X1221466Y766813D03*
X901624Y766826D03*
X1325865Y779257D03*
X1315403Y779234D03*
X1305291Y779358D03*
X1295100Y779358D03*
X1254242Y779292D03*
X1244316Y779267D03*
X1234280Y779394D03*
X1222538Y779394D03*
X1211788Y779356D03*
X1199337Y779313D03*
X1188019Y779275D03*
X1177239Y779277D03*
X1166104Y779402D03*
X1154206Y779379D03*
X1143358Y779302D03*
X1132274Y779366D03*
X1121108Y779407D03*
X1109957Y779399D03*
X1098878Y779409D03*
X1088022Y779402D03*
X1077239Y779358D03*
X1065342Y779285D03*
X1054562Y779363D03*
X1042464Y779275D03*
X1031705Y779325D03*
X1020592Y779275D03*
X998421Y779394D03*
X987844Y779414D03*
X977359Y779343D03*
X966907Y779259D03*
X956241Y779343D03*
X945464Y779351D03*
X934364Y779381D03*
X923897Y779384D03*
X912297Y779351D03*
X901149Y779259D03*
X1009950Y779412D03*
X1284889Y779371D03*
X1274625Y779318D03*
X1264930Y779361D03*
X1211285Y754324D03*
X1201257Y754324D03*
X1191222Y754350D03*
X1179606Y754350D03*
X1168730Y754362D03*
X1156279Y754344D03*
X1144933Y754347D03*
X1134133Y754344D03*
X1123046Y754339D03*
X1111636Y754339D03*
X1100300Y754334D03*
X1089266Y754347D03*
X1078024Y754362D03*
X1066935Y754347D03*
X1055921Y754350D03*
X1044903Y754350D03*
X1034181Y754365D03*
X1022360Y754367D03*
X1011479Y754344D03*
X999510Y754339D03*
X988593Y754322D03*
X977976Y754349D03*
X955363Y754324D03*
X944786Y754344D03*
X934326Y754324D03*
X923950Y754362D03*
X913133Y754324D03*
X966815Y754349D03*
X1231567Y754350D03*
X1221694Y754367D03*
X901827Y754329D03*
X1072007Y676859D03*
X1083361Y676148D03*
X1092886Y671347D03*
X1098474Y662076D03*
X1099541Y651586D03*
X1099871Y641274D03*
X1091667Y631571D03*
X1081964Y637515D03*
X1082065Y648614D03*
X1080567Y663296D03*
X1106703Y680517D03*
X1110894Y670382D03*
X1113434Y659892D03*
X1113942Y648792D03*
X1113688Y638480D03*
X1121461Y630606D03*
X1130122Y635508D03*
X1129843Y646354D03*
X1129843Y657784D03*
X1129157Y669239D03*
X1125830Y680517D03*
X1114476Y690220D03*
X1132865Y697941D03*
X1139850Y689381D03*
X1143432Y679475D03*
X1144092Y669163D03*
X1144219Y658292D03*
X1145057Y647319D03*
X1145540Y637184D03*
X1153135Y630072D03*
X1160475Y637845D03*
X1160780Y649199D03*
X1160297Y659816D03*
X1159866Y670560D03*
X1160170Y681965D03*
X1156792Y692734D03*
X1150544Y701777D03*
X1140841Y703809D03*
X1157732Y715467D03*
X1167130Y707314D03*
X1173048Y696824D03*
X1174928Y686181D03*
X1175156Y675411D03*
X1176528Y664108D03*
X1176833Y653771D03*
X1176452Y642925D03*
X1179297Y632714D03*
X1190015Y633298D03*
X1191539Y644373D03*
X1191971Y655091D03*
X1191616Y666725D03*
X1191463Y678459D03*
X1191235Y689534D03*
X1190574Y701396D03*
X1187171Y711378D03*
X1175029Y715315D03*
X1183970Y729005D03*
X1195400Y728142D03*
X1206983Y727558D03*
X1217676Y723697D03*
X1223061Y713943D03*
X1224229Y702564D03*
X1225245Y691947D03*
X1224559Y680085D03*
X1224915Y669163D03*
X1224737Y658851D03*
X1224864Y647675D03*
X1223645Y636219D03*
X1215441Y629844D03*
X1208049Y639064D03*
X1206830Y650291D03*
X1207567Y662737D03*
X1208075Y675361D03*
X1207973Y687680D03*
X1208075Y701497D03*
X1202665Y715035D03*
X1216000Y740766D03*
X1226693Y736371D03*
X1233348Y727685D03*
X1238123Y716610D03*
X1239774Y705409D03*
X1239774Y693572D03*
X1239647Y682244D03*
X1240155Y670535D03*
X1240536Y659079D03*
X1240155Y648640D03*
X1240155Y636422D03*
X1249451Y631393D03*
X1255497Y640207D03*
X1254735Y651408D03*
X1254633Y662229D03*
X1254506Y673557D03*
X1253490Y685140D03*
X1253363Y696468D03*
X1253617Y707796D03*
X1252093Y719379D03*
X1250848Y731571D03*
X1240028Y740131D03*
X1247699Y753974D03*
X1257402Y747700D03*
X1266063Y740512D03*
X1270102Y729183D03*
X1271118Y717220D03*
X1270991Y705409D03*
X1271346Y692937D03*
X1270991Y680593D03*
X1271854Y669265D03*
X1272362Y657555D03*
X1271981Y646862D03*
X1272108Y634644D03*
X1286459Y634898D03*
X1286332Y646100D03*
X1286713Y656819D03*
X1287475Y668757D03*
X1286078Y680212D03*
X1286332Y691312D03*
X1285570Y703377D03*
X1285316Y714705D03*
X1284935Y725653D03*
X1284326Y736981D03*
X1279652Y747446D03*
X1268578Y752856D03*
X1292123Y759765D03*
X1299921Y749452D03*
X1302309Y738251D03*
X1302690Y726415D03*
X1302563Y713715D03*
X1302817Y701370D03*
X1302436Y688416D03*
X1302563Y676707D03*
X1303198Y665505D03*
X1302436Y653796D03*
X1302944Y642849D03*
X1309853Y632257D03*
X1317295Y641198D03*
X1318666Y652272D03*
X1317930Y665759D03*
X1316406Y679348D03*
X1316787Y691413D03*
X1317295Y704266D03*
X1317041Y715975D03*
X1316787Y728294D03*
X1317295Y741655D03*
X1316279Y753491D03*
X1306728Y762660D03*
X1328039Y766801D03*
X1333475Y756107D03*
X1334389Y743052D03*
X1335278Y730707D03*
X1335837Y718922D03*
X1335837Y706958D03*
X1336751Y695350D03*
X1336751Y682295D03*
X1336370Y670331D03*
X1336192Y658368D03*
X1335837Y644957D03*
X1337462Y633527D03*
X1347699Y628777D03*
X1349426Y617245D03*
X1349654Y605485D03*
X1351178Y592658D03*
X1349426Y576123D03*
X1337894Y569163D03*
X1326159Y568731D03*
X1313967Y568071D03*
X1302029Y566979D03*
X1288974Y568071D03*
X1275486Y568731D03*
X1263752Y567207D03*
X1251788Y567411D03*
X1239393Y567868D03*
X1227201Y567868D03*
X1215669Y567868D03*
X1204798Y567207D03*
X1192632Y567639D03*
X1179373Y568300D03*
X1167181Y567411D03*
X1154125Y567411D03*
X1140866Y567207D03*
X1128700Y567868D03*
X1116940Y567868D03*
X1105205Y568071D03*
X1094537Y568503D03*
X1081507Y568300D03*
X1067791Y568731D03*
X1055116Y570967D03*
X1051128Y583311D03*
X1051128Y595808D03*
X1052043Y612673D03*
X1054024Y625196D03*
X1061085Y636778D03*
X1066521Y647675D03*
X1062177Y659994D03*
X1053287Y667080D03*
X1038250Y669595D03*
X822884Y722986D03*
X822858Y710235D03*
X824459Y698170D03*
X877672Y690931D03*
X863600Y690956D03*
X847598Y694512D03*
X838606Y705256D03*
X835635Y719760D03*
X849097Y725018D03*
X854329Y713994D03*
X864641Y706399D03*
X878357Y704113D03*
X879323Y716839D03*
X878103Y730606D03*
X875284Y777570D03*
X1123706Y704200D03*
X1112297Y704225D03*
X1100960Y704195D03*
X1089927Y704233D03*
X1078685Y704223D03*
X1067595Y704157D03*
X1056607Y704210D03*
X1045563Y704235D03*
X1034816Y704200D03*
X1023021Y704228D03*
X1012139Y704205D03*
X1000171Y704225D03*
X989254Y704233D03*
X978662Y704210D03*
X956023Y704235D03*
X945421Y704230D03*
X934987Y704235D03*
X924560Y704223D03*
X913793Y704235D03*
X967476Y704235D03*
X902513Y704215D03*
X1145492Y716831D03*
X1134641Y716854D03*
X1123554Y716824D03*
X1112144Y716849D03*
X1100808Y716818D03*
X1089774Y716857D03*
X1078532Y716846D03*
X1067443Y716780D03*
X1056455Y716834D03*
X1045411Y716859D03*
X1034664Y716824D03*
X1022868Y716852D03*
X1011987Y716829D03*
X1000018Y716848D03*
X989101Y716857D03*
X978510Y716834D03*
X955871Y716859D03*
X945269Y716854D03*
X934834Y716859D03*
X924408Y716846D03*
X913641Y716859D03*
X967323Y716859D03*
X902360Y716839D03*
X1169213Y729419D03*
X1156762Y729402D03*
X1145416Y729404D03*
X1134615Y729402D03*
X1123528Y729397D03*
X1112119Y729397D03*
X1100783Y729391D03*
X1089749Y729404D03*
X1078507Y729419D03*
X1067417Y729404D03*
X1056404Y729407D03*
X1045385Y729407D03*
X1034664Y729422D03*
X1022843Y729425D03*
X1011961Y729402D03*
X999993Y729396D03*
X989076Y729379D03*
X978459Y729407D03*
X955845Y729381D03*
X945269Y729402D03*
X934809Y729381D03*
X924382Y729369D03*
X913615Y729381D03*
X967298Y729407D03*
X902310Y729386D03*
X1201842Y741903D03*
X1191806Y741929D03*
X1180191Y741929D03*
X1169314Y741891D03*
X1156863Y741924D03*
X1145517Y741926D03*
X1134717Y741924D03*
X1123630Y741919D03*
X1112220Y741919D03*
X1100884Y741914D03*
X1089851Y741926D03*
X1078608Y741909D03*
X1067519Y741926D03*
X1056505Y741929D03*
X1045487Y741929D03*
X1034766Y741909D03*
X1022960Y741878D03*
X1012063Y741924D03*
X1000094Y741918D03*
X989178Y741901D03*
X978560Y741929D03*
X955947Y741904D03*
X945370Y741924D03*
X934911Y741904D03*
X924484Y741891D03*
X913717Y741904D03*
X967400Y741929D03*
X902411Y741909D03*
X1070153Y859638D03*
X1081938Y860908D03*
X1094080Y860171D03*
X1106221Y860349D03*
X1118362Y859993D03*
X1130148Y860171D03*
X1142111Y859993D03*
X1154074Y859993D03*
X1165657Y860171D03*
X1177265Y862355D03*
X1187399Y869975D03*
X1188491Y881024D03*
X1188847Y893343D03*
X1189761Y904240D03*
X1189228Y915848D03*
X1188314Y926160D03*
X1188136Y937412D03*
X1177265Y939038D03*
X1166012Y940130D03*
X1156411Y944855D03*
X1156411Y956081D03*
X1157351Y967664D03*
X1157656Y980491D03*
X1239342Y981710D03*
X1240104Y970813D03*
X1241476Y959790D03*
X1240104Y948309D03*
X1234059Y938936D03*
X1222731Y938200D03*
X1208405Y938352D03*
X1209446Y926414D03*
X1207795Y915391D03*
X1208100Y902995D03*
X1208253Y892277D03*
X1207795Y879881D03*
X1206576Y867181D03*
X1199947Y856920D03*
X1177696Y846684D03*
X1189533Y848208D03*
X1209878Y848106D03*
X1220953Y848233D03*
X1232027Y847954D03*
X1243025Y847954D03*
X1254227Y848462D03*
X1265504Y848233D03*
X1276502Y849655D03*
X1288136Y850875D03*
X1296746Y857809D03*
X1300658Y868553D03*
X1301115Y881075D03*
X1300353Y894080D03*
X1300201Y905866D03*
X1300810Y917499D03*
X1300048Y928827D03*
X1298245Y940003D03*
X1286154Y939851D03*
X1273480Y941070D03*
X1268730Y950849D03*
X1267384Y963524D03*
X1268222Y977392D03*
X1320063Y935787D03*
X1333119Y937768D03*
X1345971Y940308D03*
X1352677Y949731D03*
X1351407Y963168D03*
X1351610Y974776D03*
X1320622Y923265D03*
X1320241Y909853D03*
X1319708Y894258D03*
X1318971Y881024D03*
X1319352Y867969D03*
X1317904Y855447D03*
X1311910Y846201D03*
X1281913Y834034D03*
X1292454Y834619D03*
X1304544Y835000D03*
X1316406Y835000D03*
X1327125Y835127D03*
X1337970Y834619D03*
X1348740Y835279D03*
X1360678Y836016D03*
X1370965Y836219D03*
X1382471Y835355D03*
X1393977Y836600D03*
X1405026Y840816D03*
X1411808Y849706D03*
X1412088Y862508D03*
X1412900Y873455D03*
X1411554Y885393D03*
X1410538Y897103D03*
X1410792Y908812D03*
X1411427Y920267D03*
X1410665Y932612D03*
X1401724Y938759D03*
X1388389Y940283D03*
X1380465Y947572D03*
X1381227Y958037D03*
X1380719Y969493D03*
X1379576Y981685D03*
X1429918Y932358D03*
X1438605Y939267D03*
X1449680Y940410D03*
X1461872Y942416D03*
X1460627Y953618D03*
X1459738Y963828D03*
X1460373Y972998D03*
X1461364Y982574D03*
X1431417Y919505D03*
X1430934Y907669D03*
X1431163Y894969D03*
X1431036Y883133D03*
X1430960Y871855D03*
X1431163Y859587D03*
X1429690Y846988D03*
X1426439Y837032D03*
X1419098Y829158D03*
X1409776Y822985D03*
X1429080Y822655D03*
X1440282Y826237D03*
X1449832Y831799D03*
X1457173Y841019D03*
X1462837Y850367D03*
X1468603Y860425D03*
X1472692Y870814D03*
X1476883Y881304D03*
X1481074Y891362D03*
X1486002Y901344D03*
X1491056Y911403D03*
X1496670Y923239D03*
X1504213Y937285D03*
X1491996Y942111D03*
X1489583Y952551D03*
X1489126Y964336D03*
X1489735Y978535D03*
X1520698Y930021D03*
X1527480Y938352D03*
X1539723Y939698D03*
X1552245Y940613D03*
X1563421Y941527D03*
X1572336Y950138D03*
X1572946Y961009D03*
X1572184Y972947D03*
X1516761Y918845D03*
X1510106Y909498D03*
X1506042Y898296D03*
X1500759Y888492D03*
X1495781Y878662D03*
X1490091Y867359D03*
X1484122Y856336D03*
X1479728Y845210D03*
X1474470Y834517D03*
X1468196Y823824D03*
X1457071Y815315D03*
X1484325Y831164D03*
X1489786Y842061D03*
X1495450Y852983D03*
X1502054Y864108D03*
X1510538Y873633D03*
X1519149Y881609D03*
X1528166Y889381D03*
X1537310Y897560D03*
X1540459Y908888D03*
X1541831Y921868D03*
X1582750Y931697D03*
X1570660Y932307D03*
X1540916Y873989D03*
X1541221Y862203D03*
X1544549Y850570D03*
X1555725Y850570D03*
X1568704Y850570D03*
X1582141Y851764D03*
X1531569Y868248D03*
X1523263Y860247D03*
X1515694Y852068D03*
X1511783Y841350D03*
X1505128Y830478D03*
X1497279Y818540D03*
X1488364Y813410D03*
X1477493Y806450D03*
X1498041Y804951D03*
X1509801Y804189D03*
X1521435Y803123D03*
X1533373Y801014D03*
X1540307Y810692D03*
X1545158Y821868D03*
X1556639Y823366D03*
X1567942Y822630D03*
X1581252Y823062D03*
X1582064Y742950D03*
X1571574Y742213D03*
X1560576Y741375D03*
X1547978Y742645D03*
X1540739Y751129D03*
X1540434Y762559D03*
X1540129Y774725D03*
X1532458Y783234D03*
X1521460Y785952D03*
X1510767Y786994D03*
X1499743Y789102D03*
X1488313Y790346D03*
X1477518Y790346D03*
X1465783Y791312D03*
X1482344Y779653D03*
X1490523Y771474D03*
X1495755Y761822D03*
X1499946Y750926D03*
X1504569Y739902D03*
X1510665Y729513D03*
X1518006Y719557D03*
X1526946Y712191D03*
X1536243Y701243D03*
X1545184Y712318D03*
X1556385Y712953D03*
X1568475Y712318D03*
X1580794Y712445D03*
X1581988Y631063D03*
X1568704Y630606D03*
X1554963Y630606D03*
X1543787Y633933D03*
X1536852Y642976D03*
X1536548Y655218D03*
X1535938Y667918D03*
X1531849Y679704D03*
X1522044Y686943D03*
X1512672Y694512D03*
X1503020Y704926D03*
X1496670Y715950D03*
X1492606Y726237D03*
X1486662Y736854D03*
X1480998Y748563D03*
X1476858Y760527D03*
X1468298Y771474D03*
X1458468Y779653D03*
X1485036Y715797D03*
X1487907Y703275D03*
X1491234Y691337D03*
X1493495Y678485D03*
X1496974Y664134D03*
X1500607Y649478D03*
X1505433Y634517D03*
X1511173Y621233D03*
X1519174Y609752D03*
X1525676Y597967D03*
X1537157Y588137D03*
X1541831Y598881D03*
X1552702Y605053D03*
X1564183Y604926D03*
X1576095Y605663D03*
X1539265Y538886D03*
X1538961Y549021D03*
X1535328Y560959D03*
X1524914Y570179D03*
X1514805Y576961D03*
X1506042Y586181D03*
X1497889Y596316D03*
X1490193Y606730D03*
X1485036Y619709D03*
X1479753Y632866D03*
X1478407Y643585D03*
X1475842Y655066D03*
X1472819Y666394D03*
X1469949Y679094D03*
X1467841Y692074D03*
X1465224Y704418D03*
X1464335Y716204D03*
X1464132Y728726D03*
X1460881Y742315D03*
X1453642Y753745D03*
X1446733Y765531D03*
X1434592Y770788D03*
X1422451Y773862D03*
X1405966Y776224D03*
X1391869Y776529D03*
X1376782Y776097D03*
X1363040Y776097D03*
X1351255Y776681D03*
X1338555Y777748D03*
X1032993Y874420D03*
X1045185Y873989D03*
X1056716Y874420D03*
X1068451Y878332D03*
X1075842Y886155D03*
X1076706Y897484D03*
X1077798Y910082D03*
X1077595Y920750D03*
X1077138Y932078D03*
X1067359Y938606D03*
X1054964Y940130D03*
X1045108Y947191D03*
X1046353Y957529D03*
X1046226Y969493D03*
X1046353Y981685D03*
X1128014Y981812D03*
X1128776Y970610D03*
X1128522Y959663D03*
X1128903Y947572D03*
X1122375Y939394D03*
X1110539Y939013D03*
X1096061Y938149D03*
X1096061Y925170D03*
X1096315Y914095D03*
X1096315Y903275D03*
X1096950Y891438D03*
X1095426Y880999D03*
X1088898Y871169D03*
X1100960Y691342D03*
X1089927Y691380D03*
X1078685Y691370D03*
X1067595Y691304D03*
X1056607Y691358D03*
X1045563Y691383D03*
X1034816Y691347D03*
X1023021Y691375D03*
X1012139Y691352D03*
X1000171Y691372D03*
X989254Y691380D03*
X978662Y691357D03*
X956023Y691383D03*
X945421Y691378D03*
X934987Y691383D03*
X924560Y691370D03*
X913793Y691383D03*
X967476Y691383D03*
X902513Y691363D03*
M02*
