G04 EAGLE Gerber RS-274X export*
G75*
%MOMM*%
%FSLAX34Y34*%
%LPD*%
%INSolderpaste Top*%
%IPPOS*%
%AMOC8*
5,1,8,0,0,1.08239X$1,22.5*%
G01*
%ADD10R,2.000000X1.600000*%
%ADD11R,0.304800X0.152400*%


D10*
X425440Y617220D03*
X425440Y589220D03*
X362460Y617200D03*
X362460Y589200D03*
X456900Y617070D03*
X456900Y589070D03*
X393630Y617160D03*
X393630Y589160D03*
X489150Y616790D03*
X489150Y588790D03*
X299260Y617220D03*
X299260Y589220D03*
X521160Y616820D03*
X521160Y588820D03*
X330660Y617220D03*
X330660Y589220D03*
X267960Y617520D03*
X267960Y589520D03*
D11*
X721360Y811530D03*
X721360Y753050D03*
X721360Y795570D03*
X721360Y757010D03*
X721360Y788610D03*
X721360Y760030D03*
X721360Y791610D03*
X721360Y750050D03*
X721360Y785610D03*
X721370Y763050D03*
X721360Y740090D03*
X721360Y808530D03*
X721360Y743090D03*
X721360Y805530D03*
X721360Y747050D03*
X721360Y801570D03*
X721360Y737090D03*
X721360Y798570D03*
X861290Y785610D03*
X861290Y740130D03*
D10*
X1231510Y617250D03*
X1231510Y589250D03*
D11*
X861280Y788610D03*
X861290Y743130D03*
D10*
X1168140Y617180D03*
X1168140Y589180D03*
D11*
X861300Y795570D03*
X861290Y747090D03*
D10*
X1263020Y617130D03*
X1263020Y589130D03*
D11*
X861290Y791610D03*
X861290Y750090D03*
D10*
X1137310Y617040D03*
X1137310Y589040D03*
D11*
X861310Y801570D03*
X861290Y737130D03*
D10*
X1200060Y617270D03*
X1200060Y589270D03*
D11*
X861310Y805530D03*
X861290Y757050D03*
D10*
X1106190Y616930D03*
X1106190Y588930D03*
D11*
X861310Y808530D03*
X861290Y760050D03*
D10*
X1325780Y616990D03*
X1325780Y588990D03*
D11*
X861320Y811520D03*
X861290Y763050D03*
D10*
X1075100Y617030D03*
X1075100Y589030D03*
D11*
X861304Y798570D03*
X861290Y753090D03*
D10*
X1294670Y617090D03*
X1294670Y589090D03*
M02*
